<svg width="206" height="35" viewBox="0 0 206 35" fill="none" xmlns="http://www.w3.org/2000/svg">
<path d="M19.5984 10.685C19.4705 9.39595 18.9219 8.39453 17.9524 7.68075C16.983 6.96697 15.6673 6.61008 14.0053 6.61008C12.8761 6.61008 11.9226 6.76989 11.1449 7.08949C10.3672 7.39844 9.7706 7.8299 9.35511 8.38388C8.95028 8.93785 8.74787 9.56641 8.74787 10.2695C8.72656 10.8555 8.84908 11.3668 9.11541 11.8036C9.3924 12.2404 9.7706 12.6186 10.25 12.9382C10.7294 13.2472 11.2834 13.5188 11.9119 13.7532C12.5405 13.9769 13.2116 14.1687 13.9254 14.3285L16.8658 15.0316C18.2933 15.3512 19.6037 15.7773 20.7969 16.31C21.9901 16.8427 23.0234 17.4979 23.897 18.2756C24.7706 19.0533 25.4471 19.9695 25.9265 21.0241C26.4165 22.0788 26.6669 23.288 26.6776 24.6516C26.6669 26.6545 26.1555 28.391 25.1435 29.8612C24.142 31.3207 22.6932 32.4553 20.7969 33.2649C18.9112 34.0639 16.6367 34.4634 13.9734 34.4634C11.3313 34.4634 9.03018 34.0586 7.06996 33.2489C5.12038 32.4393 3.59695 31.2408 2.49965 29.6534C1.413 28.0554 0.84304 26.0792 0.789773 23.7248H7.48544C7.56001 24.8221 7.87429 25.7383 8.42827 26.4734C8.9929 27.1978 9.74396 27.7464 10.6815 28.1193C11.6296 28.4815 12.7003 28.6626 13.8935 28.6626C15.0653 28.6626 16.0827 28.4922 16.9457 28.1513C17.8192 27.8104 18.4957 27.3363 18.9751 26.729C19.4545 26.1218 19.6942 25.424 19.6942 24.6357C19.6942 23.9006 19.4759 23.2827 19.0391 22.782C18.6129 22.2812 17.9844 21.8551 17.1534 21.5036C16.3331 21.152 15.3263 20.8324 14.1332 20.5447L10.5696 19.6499C7.81037 18.9787 5.63175 17.9293 4.03374 16.5018C2.43572 15.0742 1.64205 13.1513 1.6527 10.733C1.64205 8.75142 2.16939 7.02024 3.23473 5.53942C4.31072 4.05859 5.78622 2.9027 7.66122 2.07173C9.53622 1.24077 11.6669 0.825283 14.0533 0.825283C16.4822 0.825283 18.6023 1.24077 20.4134 2.07173C22.2351 2.9027 23.652 4.05859 24.6641 5.53942C25.6761 7.02024 26.1982 8.73544 26.2301 10.685H19.5984ZM47.2512 1.27273V34H40.3318V1.27273H47.2512ZM61.9441 34V1.27273H83.9966V6.97763H68.8635V14.7759H82.862V20.4808H68.8635V28.2951H84.0605V34H61.9441ZM98.4978 34V1.27273H111.41C113.881 1.27273 115.991 1.71484 117.738 2.59908C119.496 3.47266 120.833 4.71378 121.749 6.32244C122.676 7.92045 123.139 9.80078 123.139 11.9634C123.139 14.1367 122.67 16.0064 121.733 17.5724C120.795 19.1278 119.437 20.321 117.658 21.152C115.889 21.983 113.748 22.3984 111.234 22.3984H102.589V16.8374H110.115C111.436 16.8374 112.534 16.6562 113.407 16.294C114.281 15.9318 114.931 15.3885 115.357 14.6641C115.794 13.9396 116.012 13.0394 116.012 11.9634C116.012 10.8768 115.794 9.96058 115.357 9.21484C114.931 8.4691 114.275 7.90447 113.391 7.52095C112.518 7.12678 111.415 6.92969 110.083 6.92969H105.417V34H98.4978ZM116.172 19.1065L124.306 34H116.667L108.709 19.1065H116.172ZM137.029 34V1.27273H149.941C152.413 1.27273 154.522 1.71484 156.269 2.59908C158.027 3.47266 159.364 4.71378 160.28 6.32244C161.207 7.92045 161.67 9.80078 161.67 11.9634C161.67 14.1367 161.202 16.0064 160.264 17.5724C159.327 19.1278 157.968 20.321 156.189 21.152C154.421 21.983 152.279 22.3984 149.765 22.3984H141.12V16.8374H148.647C149.968 16.8374 151.065 16.6562 151.938 16.294C152.812 15.9318 153.462 15.3885 153.888 14.6641C154.325 13.9396 154.543 13.0394 154.543 11.9634C154.543 10.8768 154.325 9.96058 153.888 9.21484C153.462 8.4691 152.807 7.90447 151.922 7.52095C151.049 7.12678 149.946 6.92969 148.615 6.92969H143.948V34H137.029ZM154.703 19.1065L162.837 34H155.198L147.24 19.1065H154.703ZM181.201 34H173.786L185.084 1.27273H194.001L205.283 34H197.869L189.671 8.75142H189.415L181.201 34ZM180.738 21.136H198.252V26.5373H180.738V21.136Z" fill="#918A8A"/>
</svg>
