<svg width="38" height="34" viewBox="0 0 38 34" fill="none" xmlns="http://www.w3.org/2000/svg">
<path d="M18.875 0.400024C8.5625 0.400024 0.125 7.88336 0.125 17.1C0.125 25.4334 6.9875 32.35 15.95 33.6V21.9334H11.1875V17.1H15.95V13.4167C15.95 9.23336 18.7438 6.93336 23.0375 6.93336C25.0813 6.93336 27.2188 7.25002 27.2188 7.25002V11.3667H24.8562C22.5312 11.3667 21.8 12.65 21.8 13.9667V17.1H27.0125L26.1688 21.9334H21.8V33.6C26.2183 32.9798 30.2416 30.9759 33.1436 27.9501C36.0456 24.9244 37.635 21.0761 37.625 17.1C37.625 7.88336 29.1875 0.400024 18.875 0.400024Z" fill="#828282"/>
</svg>
