<svg width="39" height="34" viewBox="0 0 39 34" fill="none" xmlns="http://www.w3.org/2000/svg">
<path d="M11.625 0.333374H27.375C33.375 0.333374 38.25 4.66671 38.25 10V24C38.25 26.5638 37.1042 29.0226 35.0648 30.8354C33.0253 32.6483 30.2592 33.6667 27.375 33.6667H11.625C5.625 33.6667 0.75 29.3334 0.75 24V10C0.75 7.43628 1.89576 4.97753 3.93521 3.16468C5.97467 1.35182 8.74077 0.333374 11.625 0.333374ZM11.25 3.66671C9.45979 3.66671 7.7429 4.29885 6.47703 5.42407C5.21116 6.54928 4.5 8.07541 4.5 9.66671V24.3334C4.5 27.65 7.51875 30.3334 11.25 30.3334H27.75C29.5402 30.3334 31.2571 29.7012 32.523 28.576C33.7888 27.4508 34.5 25.9247 34.5 24.3334V9.66671C34.5 6.35004 31.4812 3.66671 27.75 3.66671H11.25ZM29.3437 6.16671C29.9653 6.16671 30.5615 6.3862 31.001 6.7769C31.4406 7.1676 31.6875 7.69751 31.6875 8.25004C31.6875 8.80258 31.4406 9.33248 31.001 9.72318C30.5615 10.1139 29.9653 10.3334 29.3437 10.3334C28.7221 10.3334 28.126 10.1139 27.6865 9.72318C27.2469 9.33248 27 8.80258 27 8.25004C27 7.69751 27.2469 7.1676 27.6865 6.7769C28.126 6.3862 28.7221 6.16671 29.3437 6.16671ZM19.5 8.66671C21.9864 8.66671 24.371 9.54468 26.1291 11.1075C27.8873 12.6703 28.875 14.7899 28.875 17C28.875 19.2102 27.8873 21.3298 26.1291 22.8926C24.371 24.4554 21.9864 25.3334 19.5 25.3334C17.0136 25.3334 14.629 24.4554 12.8709 22.8926C11.1127 21.3298 10.125 19.2102 10.125 17C10.125 14.7899 11.1127 12.6703 12.8709 11.1075C14.629 9.54468 17.0136 8.66671 19.5 8.66671ZM19.5 12C18.0082 12 16.5774 12.5268 15.5225 13.4645C14.4676 14.4022 13.875 15.674 13.875 17C13.875 18.3261 14.4676 19.5979 15.5225 20.5356C16.5774 21.4733 18.0082 22 19.5 22C20.9918 22 22.4226 21.4733 23.4775 20.5356C24.5324 19.5979 25.125 18.3261 25.125 17C25.125 15.674 24.5324 14.4022 23.4775 13.4645C22.4226 12.5268 20.9918 12 19.5 12Z" fill="#828282"/>
</svg>
