<svg width="18" height="23" viewBox="0 0 18 23" fill="none" xmlns="http://www.w3.org/2000/svg">
<path d="M9.00001 0.380859C6.81276 0.383612 4.71584 1.31176 3.16923 2.9617C1.62261 4.61163 0.752589 6.84864 0.750009 9.182C0.747389 11.0888 1.33124 12.9439 2.41201 14.4627C2.41201 14.4627 2.63701 14.7787 2.67376 14.8243L9.00001 22.7838L15.3293 14.8203C15.3623 14.7779 15.588 14.4627 15.588 14.4627L15.5888 14.4603C16.669 12.9422 17.2526 11.088 17.25 9.182C17.2474 6.84864 16.3774 4.61163 14.8308 2.9617C13.2842 1.31176 11.1873 0.383612 9.00001 0.380859ZM9.00001 12.3824C8.40666 12.3824 7.82665 12.1947 7.3333 11.8431C6.83995 11.4914 6.45543 10.9916 6.22837 10.4068C6.00131 9.82195 5.9419 9.17845 6.05765 8.55763C6.17341 7.93681 6.45913 7.36655 6.87869 6.91897C7.29825 6.47138 7.83279 6.16657 8.41474 6.04308C8.99668 5.91959 9.59988 5.98297 10.1481 6.22521C10.6962 6.46744 11.1648 6.87764 11.4944 7.40395C11.8241 7.93025 12 8.54902 12 9.182C11.999 10.0305 11.6826 10.8439 11.1202 11.4439C10.5578 12.0438 9.79535 12.3814 9.00001 12.3824Z" fill="white"/>
</svg>
