<svg width="18" height="20" viewBox="0 0 18 20" fill="none" xmlns="http://www.w3.org/2000/svg">
<path d="M9.99998 5.90184C12.103 5.90184 13 6.85877 13 9.10226H15C15 5.66181 13.225 3.76823 9.99998 3.76823V5.90184ZM13.422 11.7085C13.2298 11.5222 12.9773 11.4228 12.7178 11.4313C12.4582 11.4399 12.212 11.5557 12.031 11.7543L9.63798 14.3797C9.06198 14.2624 7.90398 13.8773 6.71198 12.6089C5.51998 11.3362 5.15898 10.0976 5.05198 9.48738L7.51098 6.93344C7.69739 6.74049 7.80611 6.47773 7.81414 6.20077C7.82216 5.92381 7.72886 5.65439 7.55398 5.44952L3.85898 1.11509C3.68402 0.909574 3.44086 0.784915 3.18113 0.767585C2.9214 0.750255 2.66557 0.84162 2.46798 1.02227L0.297977 3.0076C0.125088 3.19271 0.0218963 3.43907 0.00797679 3.69996C-0.00702321 3.96666 -0.293023 10.2843 4.29898 15.1852C8.30498 19.4577 13.323 19.7703 14.705 19.7703C14.907 19.7703 15.031 19.7639 15.064 19.7618C15.3085 19.7472 15.5393 19.6366 15.712 19.4513L17.572 17.1353C17.7414 16.9246 17.8273 16.6518 17.8112 16.3747C17.7951 16.0977 17.6785 15.8382 17.486 15.6514L13.422 11.7085Z" fill="white"/>
</svg>
