<svg width="46" height="40" viewBox="0 0 46 40" fill="none" xmlns="http://www.w3.org/2000/svg">
<path d="M42.8625 9.99996C41.4187 10.5833 39.8625 10.9666 38.25 11.15C39.9 10.2666 41.175 8.86663 41.775 7.18329C40.2187 8.01663 38.4937 8.59996 36.675 8.93329C35.1937 7.49996 33.1125 6.66663 30.75 6.66663C26.3437 6.66663 22.7437 9.86663 22.7437 13.8166C22.7437 14.3833 22.8187 14.9333 22.95 15.45C16.275 15.15 10.3312 12.3 6.375 7.98329C5.68125 9.03329 5.2875 10.2666 5.2875 11.5666C5.2875 14.05 6.69375 16.25 8.86875 17.5C7.5375 17.5 6.3 17.1666 5.2125 16.6666C5.2125 16.6666 5.2125 16.6666 5.2125 16.7166C5.2125 20.1833 7.9875 23.0833 11.6625 23.7333C10.9875 23.9 10.275 23.9833 9.54375 23.9833C9.0375 23.9833 8.53125 23.9333 8.04375 23.85C9.05625 26.6666 12 28.7666 15.5437 28.8166C12.8062 30.75 9.3375 31.8833 5.55 31.8833C4.9125 31.8833 4.275 31.85 3.6375 31.7833C7.2 33.8166 11.4375 35 15.975 35C30.75 35 38.8687 24.1 38.8687 14.65C38.8687 14.3333 38.8687 14.0333 38.85 13.7166C40.425 12.7166 41.775 11.45 42.8625 9.99996Z" fill="#828282"/>
</svg>
