<svg width="15" height="18" viewBox="0 0 15 18" fill="none" xmlns="http://www.w3.org/2000/svg">
<path d="M5.00947 14.4547L7.63447 12.5175L10.2595 14.4802L9.57197 10.8098L11.8845 8.36284L8.84281 8.03148L7.63447 4.56499L6.42614 8.00599L3.38447 8.33735L5.69697 10.8098L5.00947 14.4547ZM7.63447 14.9135L4.17614 17.4624C4.02336 17.5813 3.86364 17.6323 3.69697 17.6153C3.53031 17.5983 3.38447 17.5304 3.25947 17.4114C3.13447 17.2925 3.03725 17.1439 2.96781 16.9659C2.89836 16.7871 2.88447 16.5873 2.92614 16.3664L3.84281 11.549L0.780307 8.31186C0.641418 8.15893 0.554751 7.98458 0.520307 7.78883C0.485307 7.59375 0.495584 7.40276 0.55114 7.21584C0.606696 7.02892 0.690029 6.87598 0.80114 6.75704C0.912251 6.63809 1.06503 6.56162 1.25947 6.52764L5.30114 6.09432L6.86364 1.55729C6.93308 1.35338 7.04086 1.20045 7.18697 1.09849C7.33253 0.996535 7.4817 0.945557 7.63447 0.945557C7.78725 0.945557 7.9367 0.996535 8.08281 1.09849C8.22836 1.20045 8.33586 1.35338 8.40531 1.55729L9.96781 6.09432L14.0095 6.52764C14.2039 6.56162 14.3567 6.63809 14.4678 6.75704C14.5789 6.87598 14.6622 7.02892 14.7178 7.21584C14.7734 7.40276 14.7839 7.59375 14.7495 7.78883C14.7145 7.98458 14.6275 8.15893 14.4886 8.31186L11.4261 11.549L12.3428 16.3664C12.3845 16.5873 12.3706 16.7871 12.3011 16.9659C12.2317 17.1439 12.1345 17.2925 12.0095 17.4114C11.8845 17.5304 11.7386 17.5983 11.572 17.6153C11.4053 17.6323 11.2456 17.5813 11.0928 17.4624L7.63447 14.9135Z" fill="#828282"/>
</svg>
