<svg width="15" height="18" viewBox="0 0 15 18" fill="none" xmlns="http://www.w3.org/2000/svg">
<path d="M7.5 14.9135L4.04167 17.4624C3.88889 17.5813 3.72917 17.6323 3.5625 17.6153C3.39583 17.5983 3.25 17.5304 3.125 17.4114C3 17.2925 2.90278 17.144 2.83333 16.9659C2.76389 16.7871 2.75 16.5873 2.79167 16.3664L3.70833 11.549L0.645833 8.31186C0.506944 8.15893 0.420277 7.98458 0.385833 7.78883C0.350833 7.59375 0.361111 7.40276 0.416666 7.21584C0.472222 7.02892 0.555555 6.87598 0.666666 6.75704C0.777777 6.63809 0.930555 6.56162 1.125 6.52764L5.16667 6.09432L6.72917 1.55729C6.79861 1.35338 6.90639 1.20045 7.0525 1.09849C7.19805 0.996535 7.34722 0.945557 7.5 0.945557C7.65278 0.945557 7.80222 0.996535 7.94833 1.09849C8.09389 1.20045 8.20139 1.35338 8.27083 1.55729L9.83333 6.09432L13.875 6.52764C14.0694 6.56162 14.2222 6.63809 14.3333 6.75704C14.4444 6.87598 14.5278 7.02892 14.5833 7.21584C14.6389 7.40276 14.6494 7.59375 14.615 7.78883C14.58 7.98458 14.4931 8.15893 14.3542 8.31186L11.2917 11.549L12.2083 16.3664C12.25 16.5873 12.2361 16.7871 12.1667 16.9659C12.0972 17.144 12 17.2925 11.875 17.4114C11.75 17.5304 11.6042 17.5983 11.4375 17.6153C11.2708 17.6323 11.1111 17.5813 10.9583 17.4624L7.5 14.9135Z" fill="#828282"/>
</svg>
